<svg width="152" height="152" viewBox="0 0 152 152" fill="none" xmlns="http://www.w3.org/2000/svg">
<rect width="152" height="152" fill="#81B3D3"/>
<path d="M50.9347 93.7814C51.0419 93.8866 51.0962 93.9905 51.0962 94.0957C51.2049 94.0957 51.3121 94.147 51.4193 94.2522C54.3296 97.3849 57.6186 100.31 61.2836 103.026C64.9486 105.636 69.1539 107.046 73.8967 107.255C74.0053 107.255 74.1125 107.309 74.2197 107.413H74.7057C74.8129 107.413 74.9215 107.464 75.0287 107.569H76.8069C77.3472 107.464 77.8318 107.36 78.2635 107.255C79.9915 106.941 81.6395 106.302 83.1149 105.376C84.7301 104.435 85.9708 103.286 86.8328 101.929L87.1572 101.301L87.4803 100.675C87.6961 99.9442 87.8576 99.2655 87.9663 98.6382C88.0735 98.0122 88.1278 97.4375 88.1278 96.9154C88.1278 94.0957 86.8328 91.7456 84.2469 89.8649C81.8359 87.9186 79.1018 86.3822 76.1608 85.3211C75.0548 84.9256 73.9195 84.6117 72.7646 84.3821C71.7508 84.0849 70.7262 83.8234 69.6928 83.5982H69.3697C69.2611 83.4944 69.1539 83.4417 69.0467 83.4417C63.8032 82.2039 58.7861 80.1961 54.1694 77.4881C49.5325 74.6684 46.3535 70.6467 44.6282 65.4243C44.2903 64.3314 43.9668 63.2345 43.6576 62.1338C43.4363 60.9413 43.2746 59.7392 43.1731 58.5316C43.0737 58.1732 43.0195 57.8045 43.0115 57.4334V53.6734C43.1187 52.8383 43.2803 52.0032 43.4961 51.1668C43.8309 49.0334 44.3721 46.9352 45.1128 44.9001C45.8675 42.8117 46.8381 40.931 48.023 39.2608C51.4736 33.724 55.8933 29.7549 61.2836 27.3535C66.7825 24.9507 72.4958 23.75 78.425 23.75C79.8272 23.75 81.2281 23.8539 82.6303 24.063C84.1445 24.1678 85.6544 24.3244 87.1572 24.5325C91.0896 25.1733 94.9389 26.2241 98.6382 27.6665C102.519 29.1289 106.077 30.8518 109.312 32.8363L100.418 52.1071C97.5153 50.0235 94.4309 48.1889 91.1996 46.6243C87.9663 45.0566 84.4628 44.2741 80.6892 44.2741H79.3942C76.9156 44.5871 74.5985 45.684 72.4415 47.5633C70.286 49.3387 69.2082 51.272 69.2082 53.3604V54.3008C69.3154 54.6138 69.4769 54.9268 69.6928 55.2411C69.9086 55.9723 70.286 56.6509 70.8249 57.2783C71.3637 57.9043 71.9569 58.479 72.6031 59.0011C73.7894 59.9414 75.5133 60.8292 77.7789 61.6643C80.0417 62.3955 82.4144 63.1267 84.8944 63.8579C86.9414 64.38 88.9354 64.9022 90.8765 65.4243C92.8176 65.8425 94.4343 66.2607 95.7279 66.6789C101.764 68.7674 106.293 72.2656 109.312 77.1751C112.329 81.9793 113.893 87.0978 114 92.528V93.3119C114 93.9392 113.947 94.5666 113.838 95.1926V96.9154C113.192 102.347 111.36 107.517 108.341 112.426C105.431 117.336 101.496 121.096 96.5369 123.708C94.6964 124.546 92.8063 125.278 90.8765 125.9C88.9494 126.419 87.0085 126.89 85.056 127.311C83.4547 127.622 81.8341 127.831 80.2046 127.937C78.6502 128.142 77.0834 128.246 75.5147 128.25H73.7351C67.2671 128.042 60.9076 126.684 54.654 124.176C48.4018 121.565 42.85 118.118 38 113.836L50.9347 93.7814Z" fill="white"/>
</svg>
